# xmcd CD database file
#
# Track frame offsets:
#	150
#	13940
#	34417
#	52506
#	67598
#	83459
#	101435
#	126236
#	142815
#	156646
#	178773
#	202065
#	221641
#	232431
#	250988
#	291730
#
# Disc length: 4251 seconds
#
# Revision: 0
# Processed by: cddbd v1.5.2PL0 Copyright (c) Steve Scherf et al.
# Submitted via: CDex 1.70beta2
#
DISCID=ef109910
DTITLE=Don Tiki - South of the Boudoir
DYEAR=2009
DGENRE=Jazz
TTITLE0=Friendly Islands
TTITLE1=Odd Man Out
TTITLE2=Turkish Delight
TTITLE3=The Forbidden Finger
TTITLE4=Bla Bla Cha Cha
TTITLE5=Tinfoil Hats
TTITLE6=In Thailand (Yo Ma-Ma Mix)
TTITLE7=Chinatown Bar Cha Cha Cha
TTITLE8=Pussyfooting
TTITLE9=Jungle Julie
TTITLE10=Billions of Brazilians
TTITLE11=Pajama Tops
TTITLE12=The Palanquin
TTITLE13=Pagan Lust
TTITLE14=Rapture of the Deep
TTITLE15=In Thailand (Delmar's Deluxe Mix)
EXTD=YEAR: 2009
EXTT0=
EXTT1=
EXTT2=
EXTT3=
EXTT4=
EXTT5=
EXTT6=
EXTT7=
EXTT8=
EXTT9=
EXTT10=
EXTT11=
EXTT12=
EXTT13=
EXTT14=
EXTT15=
PLAYORDER=
